<?xml version="1.0" encoding="UTF-8" standalone="no"?>
<!-- Generator: Adobe Illustrator 23.0.4, SVG Export Plug-In . SVG Version: 6.00 Build 0)  -->

<svg
   xmlns:dc="http://purl.org/dc/elements/1.1/"
   xmlns:cc="http://creativecommons.org/ns#"
   xmlns:rdf="http://www.w3.org/1999/02/22-rdf-syntax-ns#"
   xmlns:svg="http://www.w3.org/2000/svg"
   xmlns="http://www.w3.org/2000/svg"
   xmlns:sodipodi="http://sodipodi.sourceforge.net/DTD/sodipodi-0.dtd"
   xmlns:inkscape="http://www.inkscape.org/namespaces/inkscape"
   version="1.1"
   id="Mullvad_VPN_Logo_Positive"
   x="0px"
   y="0px"
   viewBox="0 0 200 200"
   xml:space="preserve"
   sodipodi:docname="mullvad-white.svg"
   inkscape:version="0.92.2 5c3e80d, 2017-08-06"
   inkscape:export-filename="/Users/ryan/Desktop/asdf.png"
   inkscape:export-xdpi="103.22"
   inkscape:export-ydpi="103.22"
   width="200"
   height="200"><metadata
     id="metadata126"><rdf:RDF><cc:Work
         rdf:about=""><dc:format>image/svg+xml</dc:format><dc:type
           rdf:resource="http://purl.org/dc/dcmitype/StillImage" /><dc:title></dc:title></cc:Work></rdf:RDF></metadata><defs
     id="defs124" /><sodipodi:namedview
     pagecolor="#ffffff"
     bordercolor="#666666"
     borderopacity="1"
     objecttolerance="10"
     gridtolerance="10"
     guidetolerance="10"
     inkscape:pageopacity="0"
     inkscape:pageshadow="2"
     inkscape:window-width="1325"
     inkscape:window-height="1050"
     id="namedview122"
     showgrid="false"
     inkscape:zoom="1.91"
     inkscape:cx="200"
     inkscape:cy="200"
     inkscape:window-x="1354"
     inkscape:window-y="699"
     inkscape:window-maximized="0"
     inkscape:current-layer="Mullvad_VPN_Logo_Positive" /><style
     type="text/css"
     id="style2">
	.st0{clip-path:url(#SVGID_1_);}
	.st1{clip-path:url(#SVGID_2_);}
	.st2{clip-path:url(#SVGID_3_);}
	.st3{clip-path:url(#SVGID_4_);fill:none;stroke:#002C5B;stroke-width:6;stroke-miterlimit:10;}
	.st4{fill-rule:evenodd;clip-rule:evenodd;}
	.st5{fill-rule:evenodd;clip-rule:evenodd;fill:#FFFFFF;}
	.st6{fill:#FFFFFF;}
</style><g
     id="g1672"
     transform="translate(-79.581152,-104.18848)"><path
       id="Mullvad_Fur"
       class="st5"
       d="m 90.6,184.9 9.6,-13.4 c 0,0.1 -0.6,19.3 -0.6,19.3 l 2.7,-14.5 c 8,16.2 27.6,38.6 45.5,50.6 1.9,1.3 3.5,2.7 4.6,4.1 2.3,0.9 4.6,1.4 6.9,1.8 1.2,0.2 2.5,0.3 3.7,0.4 1.2,0.1 2.5,0.1 3.7,0.1 1.2,0 2.4,-0.1 3.6,-0.2 1.2,-0.1 2.4,-0.3 3.6,-0.5 1.2,-0.2 2.4,-0.4 3.5,-0.8 1.2,-0.3 2.3,-0.6 3.5,-1 1.1,-0.3 2.3,-0.8 3.4,-1.2 1.1,-0.5 2.2,-0.9 3.3,-1.5 1.1,-0.6 2.2,-1.1 3.2,-1.7 1.1,-0.5 2.1,-1.2 3.2,-1.8 1.1,-0.6 2.1,-1.3 3.2,-1.9 1.1,-0.6 2.1,-1.3 3.1,-1.9 1,-0.7 2.1,-1.3 3.1,-2 1,-0.7 2.1,-1.3 3.2,-2 l 1,-0.6 0.5,0.3 7.2,4.8 -7.3,-1.9 c -0.7,0.8 -1.4,1.6 -2.2,2.4 -0.9,0.9 -1.9,1.8 -2.8,2.7 -1,0.8 -2,1.7 -3.1,2.4 -1.1,0.8 -2.1,1.5 -3.3,2.2 -2.2,1.4 -4.6,2.6 -7.1,3.6 -1.2,0.5 -2.5,1 -3.7,1.4 -1.3,0.4 -2.5,0.8 -3.8,1.1 -1.3,0.3 -2.6,0.6 -3.9,0.8 -1.3,0.2 -2.6,0.3 -3.9,0.5 -2.6,0.1 -5.3,0.1 -7.9,-0.3 -1.3,-0.2 -2.6,-0.4 -3.9,-0.7 -1.3,-0.3 -2.5,-0.7 -3.7,-1.1 -2.1,-0.8 -4.2,-1.8 -6.1,-3 0,0 -6.9,1 -4.1,6.2 2.8,5.2 7,4.7 5,10.8 -1.4,3.3 -3.4,6.5 -5.6,9.5 -4.6,6.2 -11.8,11.7 -11.1,15 32.7,40.3 106.4,34.7 134.4,-1.3 -0.4,-5.2 -8.6,-7.7 -14.3,-20.4 1.6,0.5 4,1.2 4,1.1 0,-0.1 -6.8,-11.1 -7.1,-12.2 l 4.4,0.3 c 0,0 -5.8,-7.2 -6,-7.9 l 5.9,-0.8 c 0,0 -7.4,-8.5 -7.5,-9.2 l 7.5,1.2 -8.2,-9.9 h 3.9 l -4.6,-6.7 c -0.8,-0.3 -1.6,-0.5 -2.4,-0.7 -1,-0.3 -2,-0.6 -3,-0.9 -11.2,-3.5 -21.8,-6.7 -32,-13.1 -14.3,-8.9 -27.1,-19.8 -36.7,-28.3 l -19.3,-9.4 c -18.5,-1.4 -35.9,-0.9 -46.5,1.2 l 6.8,-11.6 -10.4,12.5 c -0.7,-0.2 -0.9,-0.6 -0.9,-0.6 l 0.7,-15.4 -3.3,13.9 c -1,-0.5 -2.2,-0.7 -3.4,-0.7 -4.6,0 -8.3,3.7 -8.3,8.3 0,4.2 3.1,7.7 7.2,8.2 z"
       inkscape:connector-curvature="0"
       style="clip-rule:evenodd;opacity:1;fill:#ffffff;fill-opacity:1;fill-rule:evenodd" /><path
       id="Mullvad_Nose"
       class="st5"
       d="m 102.2,154.5 c -1,-0.4 -2.2,-0.7 -3.3,-0.7 -4.6,0 -8.3,3.7 -8.3,8.3 0,4 2.9,7.4 6.7,8.2 0.1,0 0.1,0 0.2,0 2.5,-0.8 7.5,-7.5 6.7,-11.7 -0.3,-1.5 -1,-2.9 -2,-4.1 z"
       inkscape:connector-curvature="0"
       style="clip-rule:evenodd;fill:#ffffff;fill-rule:evenodd" /><path
       id="Mullvad_Helmet"
       class="st5"
       d="m 175.1,143.8 c -1.5,-4.1 -1.1,-9.4 1,-14.4 3,-6.9 8.7,-11.5 14.1,-11.5 1.1,0 2.1,0.2 3.1,0.6 3.1,-2.8 6.7,-5.1 10.7,-6.7 22.1,-8.8 54.4,6.9 62.7,28.6 4,10.5 2.8,22 -0.6,32.5 -2.8,8.6 -13,21 -9.2,30.4 -1.5,-0.4 -33.1,-10.2 -41.9,-15.8 -14.1,-8.8 -26.8,-19.6 -36.3,-28 l -0.3,-0.3 -32.1,-15.2 c -0.4,-0.2 -0.8,-0.4 -1.1,-0.6 4.6,0 22.1,2.1 29.9,0.4"
       inkscape:connector-curvature="0"
       style="clip-rule:evenodd;fill:#ffffff;fill-opacity:1;fill-rule:evenodd" /><g
       inkscape:export-ydpi="103.22"
       inkscape:export-xdpi="103.22"
       style="fill:none;stroke:none;stroke-opacity:1"
       id="Helmet_Lamp"><path
         class="st6"
         d="m 184.6,147.4 c -0.9,0 -1.7,-0.2 -2.3,-0.5 -1.6,-0.7 -2.8,-2 -3.6,-4 -1.4,-3.4 -1,-8.1 0.9,-12.5 2.5,-5.7 7.2,-9.7 11.5,-9.7 0.8,0 1.6,0.2 2.4,0.5 2.1,0.9 3.6,3 4.1,6 0.6,3.2 0.1,6.9 -1.5,10.4 -2.5,5.7 -7.3,9.8 -11.5,9.8 z"
         id="path43"
         inkscape:connector-curvature="0"
         style="fill:none;stroke:none;stroke-opacity:1" /><g
         style="fill:none;stroke:none;stroke-opacity:1"
         id="g47"><path
           style="fill:none;stroke:none;stroke-opacity:1"
           d="m 191,122.3 c 0.6,0 1.2,0.1 1.8,0.4 1.6,0.7 2.8,2.5 3.2,4.9 0.5,2.9 0.1,6.3 -1.4,9.5 -2.2,5.1 -6.5,8.8 -10.1,8.8 -0.6,0 -1.2,-0.1 -1.7,-0.3 v 0 0 c -1.5,-0.6 -2.3,-2 -2.7,-3.1 -1.2,-3 -0.9,-7.4 0.8,-11.4 2.3,-5.1 6.5,-8.8 10.1,-8.8 m 0,-3 c -4.8,0 -10.1,4.4 -12.9,10.7 -2.1,4.7 -2.4,9.8 -0.9,13.7 0.9,2.3 2.4,3.9 4.3,4.8 0.9,0.4 1.9,0.6 3,0.6 4.8,0 10.1,-4.4 12.8,-10.7 1.7,-3.8 2.2,-7.8 1.6,-11.3 -0.6,-3.5 -2.4,-6 -5,-7.1 -0.8,-0.5 -1.8,-0.7 -2.9,-0.7 z"
           id="path45"
           inkscape:connector-curvature="0" /></g></g></g></svg>